HIERARCHY
ROOT hip
{
	OFFSET 0.000000 0.000000 0.000000 
	CHANNELS 6 Xposition Yposition Zposition Xrotation Zrotation Yrotation
	JOINT abdomen
	{
		OFFSET 0.000000 3.402643 0.000000 
		CHANNELS 3 Xrotation Zrotation Yrotation
		JOINT chest
		{
			OFFSET 0.000000 8.438565 -0.680529 
			CHANNELS 3 Xrotation Zrotation Yrotation
			JOINT neck
			{
				OFFSET 0.000000 10.207942 -0.272212 
				CHANNELS 3 Xrotation Zrotation Yrotation
				JOINT head
				{
					OFFSET 0.000000 3.130431 0.000000 
					CHANNELS 3 Xrotation Zrotation Yrotation
					End Site
					{
						OFFSET 0.000000 3.130435 0.000000 
					}
				}
			}
			JOINT lCollar
			{
				OFFSET 3.470700 6.669187 -0.816635 
				CHANNELS 3 Yrotation Zrotation Xrotation
				JOINT lShldr
				{
					OFFSET 3.198488 0.000000 0.000000 
					CHANNELS 3 Zrotation Yrotation Xrotation
					JOINT lForeArm
					{
						OFFSET 10.139888 0.000000 0.000000 
						CHANNELS 3 Yrotation Zrotation Xrotation
						JOINT lHand
						{
							OFFSET 8.370511 0.000000 0.000000 
							CHANNELS 3 Zrotation Yrotation Xrotation
							End Site
							{
								OFFSET 4.083176 0.000000 0.000000 
							}
						}
					}
				}
			}
			JOINT rCollar
			{
				OFFSET -3.470700 6.669187 -0.816635 
				CHANNELS 3 Yrotation Zrotation Xrotation
				JOINT rShldr
				{
					OFFSET -3.198488 0.000000 0.000000 
					CHANNELS 3 Zrotation Yrotation Xrotation
					JOINT rForeArm
					{
						OFFSET -10.139888 0.000000 0.000000 
						CHANNELS 3 Yrotation Zrotation Xrotation
						JOINT rHand
						{
							OFFSET -8.370511 0.000000 0.000000 
							CHANNELS 3 Zrotation Yrotation Xrotation
							End Site
							{
								OFFSET -4.083176 0.000000 0.000000 
							}
						}
					}
				}
			}
		}
	}
	JOINT lThigh
	{
		OFFSET 5.308129 -1.633274 1.361059 
		CHANNELS 3 Xrotation Zrotation Yrotation
		JOINT lShin
		{
			OFFSET -2.041588 -20.007561 0.000000 
			CHANNELS 3 Xrotation Zrotation Yrotation
			JOINT lFoot
			{
				OFFSET 0.000000 -19.190928 -1.224953 
				CHANNELS 3 Xrotation Yrotation Zrotation
				End Site
				{
					OFFSET 0.000000 -2.449906 4.627600 
				}
			}
		}
	}
	JOINT rThigh
	{
		OFFSET -5.308129 -1.633274 1.361059 
		CHANNELS 3 Xrotation Zrotation Yrotation
		JOINT rShin
		{
			OFFSET 2.041588 -20.007561 0.000000 
			CHANNELS 3 Xrotation Zrotation Yrotation
			JOINT rFoot
			{
				OFFSET 0.000000 -19.190928 -1.224953 
				CHANNELS 3 Xrotation Yrotation Zrotation
				End Site
				{
					OFFSET 0.000000 -2.449906 4.627600 
				}
			}
		}
	}
}
MOTION
Frames: 20
Frame Time: 0.033333
0.351806 29.746643 1.159789 0.000000 0.166016 120.380867 51.725849 -7.260870 -9.360658 -23.056643 6.630859 -1.630859 51.063168 8.107644 2.471410 -77.001953 -17.734373 4.619141 2.000000 -2.000000 0.000000 -50.000000 -30.019527 1.621094 -56.370377 -1.312353 -2.091081 23.340467 61.377125 31.949091 -2.000000 2.000000 0.000000 36.943359 25.175783 23.783451 61.256973 1.037014 -2.234444 -47.795517 -42.283096 48.898663 -74.603973 8.944115 7.226029 59.373913 -2.620715 -4.420946 15.737915 9.606333 -1.945477 -74.537376 -8.144607 -2.920301 57.299400 2.632025 4.071802 19.543692 -12.398373 5.568210 
0.292591 29.683580 1.243743 0.000000 0.000000 120.761719 52.070366 -7.452470 -9.351395 -22.880861 6.455078 -1.455078 51.063168 8.107644 2.471410 -77.783203 -17.724609 9.882813 2.000000 -2.000000 0.000000 -49.472656 -30.546873 1.157146 -56.546432 -1.303172 -2.101395 23.033680 60.870770 31.577017 -2.000000 2.000000 0.000000 36.855469 25.117189 23.593752 61.608810 1.027833 -2.244756 -48.031876 -42.274158 48.943680 -74.606392 8.788709 7.143570 59.237904 -2.825612 -4.347535 15.966638 9.462214 -1.677065 -74.917633 -8.173598 -2.534060 57.312275 2.783304 3.678034 19.947062 -12.314719 6.219131 
0.234855 29.628496 1.331839 -0.205078 -0.175781 120.937500 52.413231 -7.537420 -9.207465 -22.705078 6.455078 -1.435547 51.063168 8.107644 2.471410 -78.564453 -17.871092 14.814453 2.000000 -2.000000 0.000000 -49.101559 -30.888674 1.244987 -57.074329 -1.284811 -2.122024 23.759712 60.507622 32.441700 -2.000000 2.000000 0.000000 36.982422 24.960938 23.798828 61.784607 1.018083 -2.245324 -48.472500 -42.303867 48.858868 -74.775322 8.591146 7.273584 59.050858 -2.848399 -4.364112 16.275753 9.582624 -1.504969 -75.228226 -8.124841 -3.044809 57.124058 2.625121 4.044959 20.213964 -12.773710 5.691709 
0.193010 29.589037 1.389744 -0.205078 -0.361328 121.113228 52.766739 -7.716484 -9.202761 -22.529297 6.269532 -1.259766 51.063168 8.107644 2.471410 -79.296875 -17.695309 19.248047 2.000000 -2.000000 0.000000 -48.701172 -31.250000 1.469544 -57.075932 -1.474020 -2.179435 23.745253 60.135677 31.557871 -2.000000 2.000000 0.000000 36.894531 24.531248 23.710938 61.960388 1.018083 -2.245324 -48.779938 -42.122166 48.808041 -75.139816 8.436163 7.214542 58.899086 -2.845094 -4.495121 16.167889 9.646390 -1.254112 -75.453972 -8.349383 -2.366081 57.136299 2.773547 3.668694 20.086487 -12.497178 6.362855 
0.165882 29.565432 1.444489 -0.361328 -0.537109 121.289063 52.964077 -7.823108 -9.336224 -22.529297 6.269532 -1.259766 51.063168 8.107644 2.471410 -80.029297 -17.675779 22.880861 2.000000 -2.000000 0.000000 -48.398438 -31.591797 1.420667 -57.252258 -1.465407 -2.199494 23.987913 60.268990 31.965965 -2.000000 2.000000 0.000000 37.041016 24.755859 23.871279 62.136444 1.008902 -2.255636 -48.564835 -41.985188 48.632458 -75.287613 8.397294 7.547966 58.718487 -2.688776 -4.377073 16.111485 9.326263 -1.183163 -75.598289 -8.310117 -2.851656 56.947060 2.675654 4.047808 20.346197 -12.801848 6.485794 
0.136185 29.526087 1.475675 -0.361328 -0.537109 121.289063 53.121460 -7.908058 -9.192354 -22.353518 6.259767 -1.240234 51.063168 8.107644 2.471410 -80.361328 -17.431639 25.029299 2.000000 -2.000000 0.000000 -47.958984 -31.767574 1.572267 -57.604099 -1.456226 -2.209809 24.476313 60.741276 32.394566 -2.000000 2.000000 0.000000 37.070313 24.765623 23.701174 61.960388 1.018083 -2.245324 -48.179695 -41.850346 48.452168 -75.475136 8.251372 7.468438 58.562481 -2.874300 -4.309430 16.408052 9.469685 -1.005751 -75.775375 -8.310343 -2.851081 56.948166 2.673974 4.017988 20.174936 -12.773744 6.435848 
0.118759 29.526087 1.479158 -0.537109 -0.722656 121.279297 53.299580 -8.087094 -9.187708 -22.363283 6.083984 -1.083984 51.063168 8.107644 2.471410 -80.634766 -17.041014 25.654297 2.000000 -2.000000 0.000000 -47.841797 -32.128906 1.708983 -57.604099 -1.456226 -2.209809 24.496696 61.113445 32.574821 -2.000000 2.000000 0.000000 36.992188 24.892580 23.519735 61.960388 1.018083 -2.245324 -48.179695 -41.850346 48.452168 -75.476402 8.427544 7.339743 58.355919 -2.737472 -4.364760 16.451176 9.424883 -1.375321 -75.802567 -8.515140 -2.353386 56.960991 2.811069 3.625912 20.410355 -12.284286 6.648347 
0.107142 29.549692 1.472354 -0.537109 -0.878906 121.289063 53.299580 -8.087094 -9.187708 -22.187500 6.074219 -1.064453 51.063168 8.107644 2.471410 -80.371094 -16.777344 24.726566 2.000000 -2.000000 0.000000 -47.675781 -32.119141 1.933594 -57.428055 -1.455658 -2.200064 23.731636 60.937180 31.723555 -2.000000 2.000000 0.000000 36.953125 25.244143 23.447264 61.784607 1.018083 -2.245324 -48.179695 -41.850346 48.452168 -75.656265 8.240381 7.286909 58.377033 -2.865837 -4.289880 16.447039 9.442713 -1.183337 -75.931145 -8.300524 -3.016536 56.947678 2.654426 4.036850 20.329552 -12.798387 6.307534 
0.127645 29.565432 1.456721 -0.537109 -0.878906 121.113281 53.321426 -8.199449 -9.335121 -22.187500 6.074219 -1.064453 51.063168 8.107644 2.471410 -80.078125 -16.367186 22.988283 2.000000 -2.000000 0.000000 -47.626953 -31.962894 2.216798 -57.604099 -1.456226 -2.209809 23.398111 61.006969 31.359032 -2.000000 2.000000 0.000000 37.080074 25.458984 23.779299 61.262016 1.086789 -2.417524 -48.398163 -42.290710 48.597416 -75.666374 8.425983 7.160381 58.355373 -2.719484 -4.384134 16.317913 9.222850 -1.072975 -75.931145 -8.300522 -3.016538 56.947678 2.654432 4.036853 20.324539 -12.799344 6.288229 
0.163316 29.644238 1.425372 -0.722656 -1.064453 121.123047 52.982609 -8.309443 -9.459448 -22.363283 6.083984 -1.083984 51.063168 8.107644 2.471410 -79.375000 -15.888670 20.205076 2.000000 -2.000000 0.000000 -47.822266 -31.953125 2.783203 -57.252258 -1.465407 -2.199494 23.392464 60.811256 31.150988 -2.000000 2.000000 0.000000 36.845703 25.595703 23.681643 61.256710 1.036446 -2.224698 -48.835632 -42.584564 49.172760 -75.666374 8.425983 7.160383 58.532787 -2.690178 -4.363143 16.159529 9.221882 -1.210508 -76.108917 -8.300823 -3.006655 56.947166 2.659834 4.049291 20.254934 -12.903671 6.400265 
0.230089 29.715170 1.386503 -0.722656 -1.064453 121.123047 52.632114 -8.321961 -9.453717 -22.363283 6.083984 -1.083984 51.063168 8.107644 2.471410 -78.515625 -15.419919 16.865232 2.000000 -2.000000 0.000000 -47.958984 -32.119141 2.651057 -57.087109 -1.594416 -2.231083 23.463251 61.380211 31.293816 -2.000000 2.000000 0.000000 36.894531 25.615234 24.003906 61.256710 1.036446 -2.224698 -48.448898 -42.811569 49.017418 -75.666374 8.425980 7.160384 58.532787 -2.690178 -4.363143 16.101294 9.385698 -1.337691 -76.108917 -8.300820 -3.006656 56.947166 2.659833 4.049291 20.243048 -12.943063 6.193422 
0.311246 29.809710 1.336502 -0.722656 -1.240234 120.947266 52.304134 -8.450235 -9.584850 -22.363283 6.083984 -1.259766 51.063168 8.107644 2.471410 -77.480469 -14.999999 12.939453 2.000000 -2.000000 0.000000 -48.251953 -31.933594 2.958984 -56.555122 -1.662751 -2.060861 23.414288 61.584347 31.160194 -2.000000 2.000000 0.000000 36.826176 25.566406 23.939762 61.256710 1.036446 -2.224698 -48.203575 -42.927654 49.278198 -75.666374 8.425978 7.160386 58.708599 -2.680410 -4.381462 15.899082 9.421875 -1.464272 -76.096252 -8.114842 -3.153415 57.124058 2.625119 4.044959 19.862034 -12.761842 5.849541 
0.408509 29.919989 1.266770 -0.908203 -1.240234 120.771484 51.777885 -8.462754 -9.580553 -22.529297 6.269532 -1.259766 51.063168 8.107644 2.471410 -76.416023 -14.404295 8.808595 2.000000 -2.000000 0.000000 -48.369141 -32.099609 3.300782 -56.207359 -1.621960 -2.200140 23.243443 62.010345 31.225603 -2.000000 2.000000 0.000000 36.748051 25.322268 24.320585 60.910172 1.095971 -2.407213 -48.320297 -42.884014 49.805367 -75.667877 8.436041 6.985796 58.875320 -2.670872 -4.379778 15.918840 9.488072 -1.619445 -75.941231 -8.124765 -2.978307 57.299870 2.615551 4.063239 19.721189 -12.712567 6.034359 
0.517440 30.046003 1.198370 -0.908203 -1.425781 120.771484 51.450054 -8.585276 -9.699138 -22.705078 6.279297 -1.279297 51.063168 8.107644 2.471410 -75.361328 -13.779295 4.511718 2.000000 -2.000000 0.000000 -48.642578 -31.904299 3.525391 -55.511272 -1.948884 -2.102843 23.716433 62.090782 31.523396 -2.000000 2.000000 0.000000 36.679691 25.126951 24.672115 61.080654 1.045628 -2.214386 -48.329926 -43.324749 49.855370 -75.689659 8.622579 6.830751 59.207844 -2.659697 -4.400027 15.800020 9.341465 -1.473945 -75.941231 -8.124763 -2.978309 57.475945 2.595905 4.076240 19.670679 -12.744196 5.836891 
0.602394 30.156282 1.140871 -0.908203 -1.425781 120.595703 50.923134 -8.525447 -9.831428 -22.880861 6.455078 -1.279297 51.063168 8.107644 2.471410 -74.541016 -13.281248 0.371094 2.000000 -2.000000 0.000000 -49.228516 -31.865236 3.964845 -54.983379 -1.957497 -2.082784 24.178150 62.190739 32.036301 -2.000000 2.000000 0.000000 36.601566 25.126955 25.277584 60.729084 1.055377 -2.213818 -48.160755 -43.649765 50.051060 -75.499893 8.621037 6.870392 59.383400 -2.631882 -4.427779 15.534738 9.472676 -1.592947 -75.919945 -8.114727 -3.144264 57.476460 2.615448 4.057493 19.415504 -12.560910 6.037659 
0.689378 30.258696 1.082316 -0.908203 -1.582031 120.595428 50.419483 -8.647991 -9.949979 -22.880861 6.455078 -1.455078 51.063168 8.107644 2.471410 -73.691406 -12.763671 -3.593750 2.000000 -2.000000 0.000000 -49.658203 -32.011719 4.335936 -54.800999 -1.837008 -2.197375 23.425430 62.552826 31.298666 -2.000000 2.000000 0.000000 36.464844 25.654297 25.537109 60.372013 1.074205 -2.369362 -47.959927 -44.012512 50.061939 -75.689659 8.622578 6.830751 59.550697 -2.640191 -4.406863 14.907793 9.324637 -1.920234 -75.924561 -7.949063 -3.296597 57.475002 2.617081 4.096945 19.074371 -12.775133 5.895801 
0.802513 30.368977 1.008767 -1.064453 -1.582031 120.409897 49.893787 -8.669642 -9.949123 -23.056641 6.455079 -1.473511 51.063168 8.107644 2.471410 -73.076172 -12.373046 -7.080079 2.000000 -2.000000 0.000000 -50.136723 -31.972658 4.453124 -54.268120 -1.805574 -1.993859 22.650612 62.523727 30.966480 -2.000000 2.000000 0.000000 36.171875 25.566406 26.205387 60.020172 1.083387 -2.359051 -47.905113 -44.528648 50.213654 -75.699532 8.808146 6.703927 59.736622 -2.601232 -4.419991 14.849587 9.348048 -1.710911 -75.920036 -7.938941 -3.105982 57.652760 2.587759 4.066266 19.186314 -12.644327 5.940893 
0.892081 30.463514 0.947946 -1.064453 -1.767578 120.429390 49.556850 -8.795567 -10.058533 -23.232420 6.640625 -1.473480 51.063168 8.107644 2.471410 -72.812500 -11.914062 -10.146183 2.000000 -2.000000 0.000000 -50.703125 -32.060547 4.252632 -53.758240 -2.173193 -1.923154 22.998281 62.238930 31.739311 -2.000000 2.000000 0.000000 35.947266 25.742189 26.806643 59.849068 1.092101 -2.172568 -47.725838 -44.853260 50.419048 -75.699532 8.808139 6.703933 59.913204 -2.601156 -4.414549 14.862155 9.336891 -1.893520 -75.748062 -7.939380 -3.302965 57.828098 2.568294 4.098574 18.832254 -12.604257 6.125551 
0.982595 30.573795 0.895653 -1.240234 -1.943359 120.429352 49.206429 -8.808080 -10.052797 -23.232420 6.640625 -1.473480 51.063168 8.107644 2.471410 -72.763672 -11.591796 -12.394541 2.000000 -2.000000 0.000000 -51.298828 -31.826176 4.804687 -53.927574 -1.984470 -2.042096 22.904884 62.441986 31.792246 -2.000000 2.000000 0.000000 35.830078 25.898438 27.094112 59.497505 1.092101 -2.172568 -47.944027 -45.244736 50.328445 -75.708534 8.827364 6.550364 60.098389 -2.562201 -4.446317 14.672908 9.408774 -2.022584 -75.748062 -7.939384 -3.302964 58.003887 2.558502 4.116634 18.613482 -12.759871 5.462811 
1.035585 30.628992 0.861355 -1.240234 -2.119140 120.253540 49.022022 -8.820592 -10.047062 -23.408203 6.826172 -1.473449 51.063168 8.107644 2.471410 -73.291016 -11.503905 -13.173829 2.000000 -2.000000 0.000000 -51.640625 -31.601561 5.009765 -54.095497 -1.675342 -2.109020 22.809383 62.283150 31.625921 -2.000000 2.000000 0.000000 35.742188 26.083984 27.572657 59.321457 1.091533 -2.162822 -47.754368 -45.471043 50.199310 -75.888268 8.818514 6.666965 60.304237 -2.606183 -4.438628 14.470017 9.307365 -1.862166 -75.903076 -7.929449 -3.478368 58.003887 2.558499 4.116633 18.546965 -12.585154 5.531597 
